DancingScript-Regular.ufo
<glyph name="plus" format="2">
  <advance width="408"/>
  <unicode hex="002B"/>
  <outline>
    <contour>
      <point x="151" y="-11" type="curve"/>
      <point x="188" y="3"/>
      <point x="198" y="69"/>
      <point x="200" y="155" type="curve"/>
      <point x="257" y="155" type="line" smooth="yes"/>
      <point x="285" y="155"/>
      <point x="327" y="160"/>
      <point x="360" y="184" type="curve"/>
      <point x="332" y="187"/>
      <point x="268" y="192"/>
      <point x="200" y="193" type="curve"/>
      <point x="199" y="258"/>
      <point x="194" y="319"/>
      <point x="191" y="346" type="curve"/>
      <point x="167" y="313"/>
      <point x="162" y="271"/>
      <point x="162" y="243" type="curve" smooth="yes"/>
      <point x="162" y="193" type="line"/>
      <point x="80" y="191"/>
      <point x="16" y="180"/>
      <point x="3" y="144" type="curve"/>
      <point x="64" y="154"/>
      <point x="100" y="155"/>
      <point x="162" y="155" type="curve"/>
      <point x="162" y="89"/>
      <point x="161" y="52"/>
    </contour>
  </outline>
</glyph>
<glyph name="hyphen" format="2">
  <advance width="484"/>
  <unicode hex="002D"/>
  <outline>
    <contour>
      <point x="36" y="144" type="curve"/>
      <point x="80" y="151"/>
      <point x="114" y="155"/>
      <point x="149" y="155" type="curve" smooth="yes"/>
      <point x="177" y="155"/>
      <point x="214" y="155"/>
      <point x="250" y="155" type="curve" smooth="yes"/>
      <point x="297" y="155"/>
      <point x="341" y="150"/>
      <point x="393" y="184" type="curve"/>
      <point x="364" y="187"/>
      <point x="296" y="193"/>
      <point x="225" y="193" type="curve" smooth="yes"/>
      <point x="129" y="193"/>
      <point x="51" y="184"/>
    </contour>
  </outline>
</glyph>
<glyph name="four" format="2">
  <advance width="478"/>
  <unicode hex="0034"/>
  <outline>
    <contour>
      <point x="297" y="-87" type="curve"/>
      <point x="297" y="-46"/>
      <point x="320" y="114"/>
      <point x="331" y="175" type="curve" smooth="yes"/>
      <point x="334" y="195"/>
      <point x="338" y="215"/>
      <point x="342" y="235" type="curve"/>
      <point x="349" y="235.0"/>
      <point x="357" y="235.0"/>
      <point x="364" y="235" type="curve"/>
      <point x="389" y="235"/>
      <point x="429" y="259"/>
      <point x="454" y="294" type="curve"/>
      <point x="436" y="289"/>
      <point x="419" y="288"/>
      <point x="394" y="288" type="curve"/>
      <point x="379" y="288.0"/>
      <point x="365" y="288.0"/>
      <point x="352" y="288" type="curve"/>
      <point x="383" y="453"/>
      <point x="413" y="593"/>
      <point x="424" y="639" type="curve"/>
      <point x="436" y="659"/>
      <point x="443" y="678"/>
      <point x="443" y="694" type="curve" smooth="yes"/>
      <point x="443" y="710"/>
      <point x="437" y="718"/>
      <point x="432" y="720" type="curve"/>
      <point x="339" y="557"/>
      <point x="116" y="388"/>
      <point x="10" y="263" type="curve"/>
      <point x="-2" y="253"/>
      <point x="-8" y="239"/>
      <point x="-8" y="221" type="curve"/>
      <point x="40" y="231"/>
      <point x="100" y="237"/>
      <point x="187" y="237" type="curve" smooth="yes"/>
      <point x="210" y="237"/>
      <point x="240" y="236"/>
      <point x="270" y="236" type="curve"/>
      <point x="258" y="180"/>
      <point x="249" y="138"/>
      <point x="248" y="130" type="curve"/>
      <point x="224" y="-3"/>
      <point x="220" y="-40"/>
      <point x="220" y="-40" type="curve"/>
      <point x="220" y="-69"/>
      <point x="252" y="-83"/>
    </contour>
    <contour>
      <point x="80" y="288" type="curve"/>
      <point x="88" y="296"/>
      <point x="96" y="306"/>
      <point x="107" y="317" type="curve"/>
      <point x="172" y="387"/>
      <point x="271" y="470"/>
      <point x="345" y="545" type="curve"/>
      <point x="324" y="476"/>
      <point x="301" y="376"/>
      <point x="282" y="291" type="curve"/>
      <point x="252" y="292"/>
      <point x="219" y="293"/>
      <point x="181" y="293" type="curve" smooth="yes"/>
      <point x="144" y="293"/>
      <point x="109" y="292"/>
    </contour>
  </outline>
</glyph>
<glyph name="d" format="2">
  <advance width="473"/>
  <unicode hex="0064"/>
  <anchor x="531" y="558" name="topright"/>
  <outline>
    <contour>
      <point x="59" y="-30" type="curve" smooth="yes"/>
      <point x="120" y="-30"/>
      <point x="198" y="49"/>
      <point x="263" y="156" type="curve"/>
      <point x="251" y="110"/>
      <point x="244" y="72"/>
      <point x="244" y="49" type="curve" smooth="yes"/>
      <point x="244" y="14"/>
      <point x="260" y="-26"/>
      <point x="310" y="-26" type="curve" smooth="yes"/>
      <point x="378" y="-26"/>
      <point x="465" y="50"/>
      <point x="504" y="153" type="curve"/>
      <point x="492" y="162" type="line"/>
      <point x="450" y="71"/>
      <point x="379" y="14"/>
      <point x="338" y="14" type="curve" smooth="yes"/>
      <point x="315" y="14"/>
      <point x="315" y="32"/>
      <point x="315" y="70" type="curve" smooth="yes"/>
      <point x="315" y="268"/>
      <point x="545" y="634"/>
      <point x="545" y="697" type="curve" smooth="yes"/>
      <point x="545" y="710"/>
      <point x="536" y="720"/>
      <point x="525" y="720" type="curve" smooth="yes"/>
      <point x="470" y="720"/>
      <point x="380" y="486"/>
      <point x="306" y="293" type="curve" smooth="yes"/>
      <point x="242" y="126"/>
      <point x="144" y="18"/>
      <point x="90" y="18" type="curve" smooth="yes"/>
      <point x="68" y="18"/>
      <point x="54" y="36"/>
      <point x="54" y="66" type="curve" smooth="yes"/>
      <point x="54" y="143"/>
      <point x="149" y="330"/>
      <point x="257" y="330" type="curve" smooth="yes"/>
      <point x="275" y="330"/>
      <point x="288" y="325"/>
      <point x="295" y="315" type="curve"/>
      <point x="296" y="320"/>
      <point x="297" y="324"/>
      <point x="297" y="329" type="curve" smooth="yes"/>
      <point x="297" y="350"/>
      <point x="281" y="360"/>
      <point x="253" y="360" type="curve" smooth="yes"/>
      <point x="129" y="360"/>
      <point x="-16" y="165"/>
      <point x="-16" y="54" type="curve" smooth="yes"/>
      <point x="-16" y="-5"/>
      <point x="25" y="-30"/>
    </contour>
  </outline>
</glyph>
<glyph name="f" format="2">
  <advance width="312"/>
  <unicode hex="0066"/>
  <outline>
    <contour>
      <point x="-13" y="-280" type="curve" smooth="yes"/>
      <point x="63" y="-280"/>
      <point x="140" y="-96"/>
      <point x="141" y="71" type="curve"/>
      <point x="163" y="51"/>
      <point x="191" y="38"/>
      <point x="215" y="38" type="curve" smooth="yes"/>
      <point x="254" y="38"/>
      <point x="312" y="72"/>
      <point x="346" y="152" type="curve"/>
      <point x="331" y="162" type="line"/>
      <point x="294" y="99"/>
      <point x="267" y="64"/>
      <point x="220" y="64" type="curve" smooth="yes"/>
      <point x="157" y="64"/>
      <point x="146" y="129"/>
      <point x="133" y="220" type="curve" smooth="yes"/>
      <point x="131" y="234"/>
      <point x="122" y="249"/>
      <point x="108" y="252" type="curve"/>
      <point x="114" y="269"/>
      <point x="120" y="286"/>
      <point x="127" y="302" type="curve"/>
      <point x="254" y="391"/>
      <point x="394" y="562"/>
      <point x="394" y="676" type="curve" smooth="yes"/>
      <point x="394" y="700"/>
      <point x="388" y="720"/>
      <point x="360" y="720" type="curve" smooth="yes"/>
      <point x="194" y="720"/>
      <point x="-68" y="13"/>
      <point x="-68" y="-192" type="curve" smooth="yes"/>
      <point x="-68" y="-266"/>
      <point x="-34" y="-280"/>
    </contour>
    <contour>
      <point x="13" y="-232" type="curve" smooth="yes"/>
      <point x="1" y="-232"/>
      <point x="-6" y="-214"/>
      <point x="-6" y="-184" type="curve" smooth="yes"/>
      <point x="-6" y="-116"/>
      <point x="30" y="27"/>
      <point x="81" y="177" type="curve"/>
      <point x="105" y="130"/>
      <point x="115" y="101"/>
      <point x="115" y="60" type="curve" smooth="yes"/>
      <point x="115" y="-45"/>
      <point x="51" y="-232"/>
    </contour>
    <contour>
      <point x="143" y="343" type="curve"/>
      <point x="211" y="512"/>
      <point x="289" y="653"/>
      <point x="341" y="653" type="curve" smooth="yes"/>
      <point x="350" y="653"/>
      <point x="355" y="649"/>
      <point x="355" y="639" type="curve" smooth="yes"/>
      <point x="355" y="598"/>
      <point x="272" y="462"/>
    </contour>
  </outline>
</glyph>
<glyph name="u" format="2">
  <advance width="438"/>
  <unicode hex="0075"/>
  <anchor x="344" y="-6" name="ogonek"/>
  <anchor x="276" y="271" name="topright"/>
  <outline>
    <contour>
      <point x="75" y="-30" type="curve" smooth="yes"/>
      <point x="125" y="-30"/>
      <point x="169" y="28"/>
      <point x="206" y="94" type="curve"/>
      <point x="202" y="77"/>
      <point x="199" y="60"/>
      <point x="199" y="44" type="curve" smooth="yes"/>
      <point x="199" y="3"/>
      <point x="216" y="-30"/>
      <point x="269" y="-30" type="curve" smooth="yes"/>
      <point x="340" y="-30"/>
      <point x="427" y="45"/>
      <point x="470" y="153" type="curve"/>
      <point x="457" y="162" type="line"/>
      <point x="408" y="59"/>
      <point x="332" y="0"/>
      <point x="290" y="0" type="curve" smooth="yes"/>
      <point x="266" y="0"/>
      <point x="257" y="16"/>
      <point x="257" y="40" type="curve" smooth="yes"/>
      <point x="257" y="107"/>
      <point x="324" y="234"/>
      <point x="324" y="245" type="curve" smooth="yes"/>
      <point x="324" y="262"/>
      <point x="287" y="269"/>
      <point x="276" y="271" type="curve"/>
      <point x="238" y="196"/>
      <point x="156" y="10"/>
      <point x="94" y="10" type="curve" smooth="yes"/>
      <point x="61" y="10"/>
      <point x="58" y="60"/>
      <point x="58" y="77" type="curve" smooth="yes"/>
      <point x="58" y="144"/>
      <point x="103" y="244"/>
      <point x="125" y="278" type="curve"/>
      <point x="114" y="290"/>
      <point x="95" y="298"/>
      <point x="88" y="298" type="curve" smooth="yes"/>
      <point x="58" y="298"/>
      <point x="0" y="147"/>
      <point x="0" y="71" type="curve" smooth="yes"/>
      <point x="0" y="17"/>
      <point x="30" y="-30"/>
    </contour>
  </outline>
</glyph>
<glyph name="y" format="2">
  <advance width="389"/>
  <unicode hex="0079"/>
  <outline>
    <contour>
      <point x="43" y="-280" type="curve" smooth="yes"/>
      <point x="112" y="-280"/>
      <point x="180" y="-163"/>
      <point x="232" y="-35" type="curve"/>
      <point x="306" y="-1"/>
      <point x="391" y="56"/>
      <point x="421" y="152" type="curve"/>
      <point x="408" y="162" type="line"/>
      <point x="370" y="70"/>
      <point x="305" y="16"/>
      <point x="243" y="-8" type="curve"/>
      <point x="290" y="113"/>
      <point x="321" y="239"/>
      <point x="321" y="272" type="curve"/>
      <point x="313" y="274"/>
      <point x="306" y="275"/>
      <point x="300" y="275" type="curve" smooth="yes"/>
      <point x="267" y="275"/>
      <point x="253" y="243"/>
      <point x="249" y="224" type="curve" smooth="yes"/>
      <point x="246" y="208"/>
      <point x="243" y="193"/>
      <point x="239" y="178" type="curve"/>
      <point x="199" y="112"/>
      <point x="144" y="50"/>
      <point x="106" y="50" type="curve" smooth="yes"/>
      <point x="79" y="50"/>
      <point x="70" y="66"/>
      <point x="70" y="90" type="curve" smooth="yes"/>
      <point x="70" y="144"/>
      <point x="113" y="252"/>
      <point x="136" y="286" type="curve"/>
      <point x="136" y="298"/>
      <point x="100" y="309"/>
      <point x="92" y="309" type="curve" smooth="yes"/>
      <point x="63" y="309"/>
      <point x="4" y="165"/>
      <point x="4" y="91" type="curve" smooth="yes"/>
      <point x="4" y="35"/>
      <point x="45" y="10"/>
      <point x="84" y="10" type="curve" smooth="yes"/>
      <point x="138" y="10"/>
      <point x="187" y="67"/>
      <point x="230" y="137" type="curve"/>
      <point x="212" y="64"/>
      <point x="193" y="3"/>
      <point x="174" y="-46" type="curve"/>
      <point x="73" y="-97"/>
      <point x="-20" y="-142"/>
      <point x="-20" y="-227" type="curve" smooth="yes"/>
      <point x="-20" y="-262"/>
      <point x="9" y="-280"/>
    </contour>
    <contour>
      <point x="38" y="-248" type="curve" smooth="yes"/>
      <point x="18" y="-248"/>
      <point x="11" y="-229"/>
      <point x="11" y="-218" type="curve" smooth="yes"/>
      <point x="11" y="-152"/>
      <point x="81" y="-114"/>
      <point x="164" y="-70" type="curve"/>
      <point x="110" y="-202"/>
      <point x="58" y="-248"/>
    </contour>
  </outline>
</glyph>
<glyph name="braceleft" format="2">
  <advance width="260"/>
  <unicode hex="007B"/>
  <outline>
    <contour>
      <point x="102" y="-87" type="curve" smooth="yes"/>
      <point x="124" y="-87"/>
      <point x="147" y="-79"/>
      <point x="149" y="-54" type="curve"/>
      <point x="143" y="-59"/>
      <point x="132" y="-62"/>
      <point x="124" y="-62" type="curve" smooth="yes"/>
      <point x="99" y="-62"/>
      <point x="91" y="-48"/>
      <point x="91" y="-30" type="curve" smooth="yes"/>
      <point x="91" y="50"/>
      <point x="167" y="132"/>
      <point x="167" y="256" type="curve" smooth="yes"/>
      <point x="167" y="287"/>
      <point x="159" y="306"/>
      <point x="141" y="325" type="curve"/>
      <point x="188" y="330"/>
      <point x="202" y="411"/>
      <point x="212" y="495" type="curve" smooth="yes"/>
      <point x="224" y="587"/>
      <point x="232" y="681"/>
      <point x="277" y="681" type="curve" smooth="yes"/>
      <point x="287" y="681"/>
      <point x="299" y="673"/>
      <point x="310" y="667" type="curve"/>
      <point x="306" y="708"/>
      <point x="280" y="720"/>
      <point x="255" y="720" type="curve" smooth="yes"/>
      <point x="175" y="720"/>
      <point x="169" y="618"/>
      <point x="161" y="518" type="curve" smooth="yes"/>
      <point x="154" y="427"/>
      <point x="145" y="338"/>
      <point x="75" y="331" type="curve"/>
      <point x="105" y="307"/>
      <point x="111" y="273"/>
      <point x="111" y="233" type="curve" smooth="yes"/>
      <point x="111" y="154"/>
      <point x="37" y="47"/>
      <point x="37" y="-21" type="curve" smooth="yes"/>
      <point x="37" y="-55"/>
      <point x="52" y="-87"/>
    </contour>
  </outline>
</glyph>
<glyph name="braceright" format="2">
  <advance width="256"/>
  <unicode hex="007D"/>
  <outline>
    <contour>
      <point x="36" y="-87" type="curve" smooth="yes"/>
      <point x="117" y="-87"/>
      <point x="122" y="23"/>
      <point x="131" y="131" type="curve" smooth="yes"/>
      <point x="139" y="227"/>
      <point x="151" y="321"/>
      <point x="223" y="339" type="curve"/>
      <point x="192" y="360"/>
      <point x="188" y="399"/>
      <point x="188" y="434" type="curve" smooth="yes"/>
      <point x="188" y="524"/>
      <point x="262" y="641"/>
      <point x="262" y="686" type="curve" smooth="yes"/>
      <point x="262" y="703"/>
      <point x="248" y="720"/>
      <point x="222" y="720" type="curve" smooth="yes"/>
      <point x="187" y="720"/>
      <point x="157" y="698"/>
      <point x="154" y="670" type="curve"/>
      <point x="171" y="683"/>
      <point x="185" y="687"/>
      <point x="190" y="687" type="curve" smooth="yes"/>
      <point x="201" y="687"/>
      <point x="202" y="680"/>
      <point x="202" y="672" type="curve" smooth="yes"/>
      <point x="202" y="617"/>
      <point x="131" y="505"/>
      <point x="131" y="419" type="curve" smooth="yes"/>
      <point x="131" y="393"/>
      <point x="137" y="368"/>
      <point x="156" y="347" type="curve"/>
      <point x="102" y="319"/>
      <point x="88" y="216"/>
      <point x="78" y="129" type="curve" smooth="yes"/>
      <point x="67" y="43"/>
      <point x="54" y="-46"/>
      <point x="13" y="-46" type="curve" smooth="yes"/>
      <point x="3" y="-46"/>
      <point x="-9" y="-42"/>
      <point x="-21" y="-34" type="curve"/>
      <point x="-17" y="-75"/>
      <point x="10" y="-87"/>
    </contour>
  </outline>
</glyph>
<glyph name="cent" format="2">
  <advance width="403"/>
  <unicode hex="00A2"/>
  <outline>
    <contour>
      <point x="68" y="-162" type="curve"/>
      <point x="145" y="-162"/>
      <point x="174" y="-55"/>
      <point x="213" y="120" type="curve"/>
      <point x="263" y="132"/>
      <point x="318" y="160"/>
      <point x="358" y="198" type="curve"/>
      <point x="341" y="214" type="line"/>
      <point x="304" y="181"/>
      <point x="261" y="162"/>
      <point x="220" y="155" type="curve"/>
      <point x="240" y="251"/>
      <point x="263" y="372"/>
      <point x="283" y="479" type="curve"/>
      <point x="305.0" y="483.4"/>
      <point x="320.0" y="475.70588235294116"/>
      <point x="320" y="455" type="curve" smooth="yes"/>
      <point x="320" y="425"/>
      <point x="303" y="386"/>
      <point x="283" y="376" type="curve"/>
      <point x="292" y="365"/>
      <point x="302" y="361"/>
      <point x="312" y="361" type="curve" smooth="yes"/>
      <point x="343" y="361"/>
      <point x="362" y="395"/>
      <point x="362" y="434" type="curve" smooth="yes"/>
      <point x="362" y="469"/>
      <point x="346" y="508"/>
      <point x="289" y="508" type="curve"/>
      <point x="329" y="720" type="line"/>
      <point x="295" y="712"/>
      <point x="287" y="695"/>
      <point x="284" y="675" type="curve" smooth="yes"/>
      <point x="278" y="634"/>
      <point x="267" y="573"/>
      <point x="252" y="502" type="curve"/>
      <point x="157" y="476"/>
      <point x="52" y="359"/>
      <point x="52" y="242" type="curve" smooth="yes"/>
      <point x="52" y="156"/>
      <point x="99" y="114"/>
      <point x="163" y="114" type="curve"/>
      <point x="128" y="-22"/>
      <point x="92" y="-135"/>
    </contour>
    <contour>
      <point x="173" y="152" type="curve"/>
      <point x="127" y="158"/>
      <point x="114" y="197"/>
      <point x="114" y="235" type="curve" smooth="yes"/>
      <point x="114" y="314"/>
      <point x="173" y="425"/>
      <point x="245" y="465" type="curve"/>
      <point x="224" y="367"/>
      <point x="199" y="255"/>
    </contour>
  </outline>
</glyph>
<glyph name="copyright" format="2">
  <advance width="592"/>
  <unicode hex="00A9"/>
  <outline>
    <contour>
      <point x="323" y="100" type="curve" smooth="yes"/>
      <point x="434" y="100"/>
      <point x="571" y="183"/>
      <point x="571" y="362" type="curve" smooth="yes"/>
      <point x="571" y="535"/>
      <point x="440" y="620"/>
      <point x="327" y="620" type="curve" smooth="yes"/>
      <point x="216" y="620"/>
      <point x="79" y="537"/>
      <point x="79" y="358" type="curve" smooth="yes"/>
      <point x="79" y="185"/>
      <point x="210" y="100"/>
    </contour>
    <contour>
      <point x="323" y="128" type="curve" smooth="yes"/>
      <point x="194" y="128"/>
      <point x="107" y="225"/>
      <point x="107" y="358" type="curve" smooth="yes"/>
      <point x="107" y="497"/>
      <point x="200" y="592"/>
      <point x="327" y="592" type="curve" smooth="yes"/>
      <point x="456" y="592"/>
      <point x="543" y="495"/>
      <point x="543" y="362" type="curve" smooth="yes"/>
      <point x="543" y="223"/>
      <point x="450" y="128"/>
    </contour>
    <contour>
      <point x="326" y="209" type="curve" smooth="yes"/>
      <point x="378" y="209"/>
      <point x="406" y="242"/>
      <point x="408" y="282" type="curve"/>
      <point x="408" y="292"/>
      <point x="401" y="296"/>
      <point x="391" y="296" type="curve" smooth="yes"/>
      <point x="387" y="296"/>
      <point x="378" y="293"/>
      <point x="378" y="284" type="curve" smooth="yes"/>
      <point x="378" y="272"/>
      <point x="367" y="235"/>
      <point x="329" y="235" type="curve" smooth="yes"/>
      <point x="294" y="235"/>
      <point x="275" y="255"/>
      <point x="275" y="299" type="curve" smooth="yes"/>
      <point x="275" y="431" type="line" smooth="yes"/>
      <point x="275" y="475"/>
      <point x="295" y="495"/>
      <point x="327" y="495" type="curve" smooth="yes"/>
      <point x="367" y="495"/>
      <point x="375" y="465"/>
      <point x="378" y="446" type="curve" smooth="yes"/>
      <point x="379" y="440"/>
      <point x="380" y="434"/>
      <point x="393" y="434" type="curve" smooth="yes"/>
      <point x="399" y="434"/>
      <point x="408" y="436"/>
      <point x="408" y="451" type="curve" smooth="yes"/>
      <point x="408" y="474"/>
      <point x="388" y="522"/>
      <point x="326" y="522" type="curve" smooth="yes"/>
      <point x="281" y="522"/>
      <point x="245" y="497"/>
      <point x="245" y="431" type="curve" smooth="yes"/>
      <point x="245" y="299" type="line" smooth="yes"/>
      <point x="245" y="234"/>
      <point x="280" y="209"/>
    </contour>
  </outline>
</glyph>
<glyph name="ordfeminine" format="2">
  <advance width="383"/>
  <unicode hex="00AA"/>
  <outline>
    <contour>
      <point x="157" y="447" type="curve" smooth="yes"/>
      <point x="191" y="447"/>
      <point x="222" y="475"/>
      <point x="262" y="529" type="curve"/>
      <point x="261" y="521"/>
      <point x="260" y="514"/>
      <point x="260" y="508" type="curve" smooth="yes"/>
      <point x="260" y="484"/>
      <point x="276" y="459"/>
      <point x="311" y="459" type="curve" smooth="yes"/>
      <point x="360" y="459"/>
      <point x="420" y="511"/>
      <point x="449" y="587" type="curve"/>
      <point x="442" y="594" type="line"/>
      <point x="400" y="520"/>
      <point x="355" y="483"/>
      <point x="330" y="483" type="curve" smooth="yes"/>
      <point x="313" y="483"/>
      <point x="306" y="500"/>
      <point x="306" y="514" type="curve" smooth="yes"/>
      <point x="306" y="548"/>
      <point x="347" y="595"/>
      <point x="347" y="611" type="curve" smooth="yes"/>
      <point x="347" y="622"/>
      <point x="327" y="627"/>
      <point x="319" y="629" type="curve"/>
      <point x="285" y="578"/>
      <point x="215" y="476"/>
      <point x="172" y="476" type="curve" smooth="yes"/>
      <point x="159" y="476"/>
      <point x="153" y="485"/>
      <point x="153" y="503" type="curve" smooth="yes"/>
      <point x="153" y="571"/>
      <point x="231" y="702"/>
      <point x="297" y="702" type="curve" smooth="yes"/>
      <point x="322" y="702"/>
      <point x="332" y="683"/>
      <point x="332" y="662" type="curve" smooth="yes"/>
      <point x="332" y="655"/>
      <point x="330" y="646"/>
      <point x="328" y="638" type="curve"/>
      <point x="348" y="638"/>
      <point x="362" y="645"/>
      <point x="362" y="668" type="curve" smooth="yes"/>
      <point x="362" y="699"/>
      <point x="335" y="720"/>
      <point x="299" y="720" type="curve" smooth="yes"/>
      <point x="208" y="720"/>
      <point x="105" y="589"/>
      <point x="105" y="506" type="curve" smooth="yes"/>
      <point x="105" y="466"/>
      <point x="127" y="447"/>
    </contour>
  </outline>
</glyph>
<glyph name="degree" format="2">
  <advance width="265"/>
  <unicode hex="00B0"/>
  <outline>
    <contour>
      <point x="164" y="396" type="curve" smooth="yes"/>
      <point x="232" y="396"/>
      <point x="290" y="460"/>
      <point x="290" y="508" type="curve" smooth="yes"/>
      <point x="290" y="538"/>
      <point x="269" y="562"/>
      <point x="214" y="562" type="curve" smooth="yes"/>
      <point x="146" y="562"/>
      <point x="92" y="498"/>
      <point x="92" y="450" type="curve" smooth="yes"/>
      <point x="92" y="420"/>
      <point x="112" y="396"/>
    </contour>
    <contour>
      <point x="169" y="413" type="curve" smooth="yes"/>
      <point x="137" y="413"/>
      <point x="124" y="429"/>
      <point x="124" y="450" type="curve" smooth="yes"/>
      <point x="124" y="489"/>
      <point x="169" y="545"/>
      <point x="214" y="545" type="curve" smooth="yes"/>
      <point x="247" y="545"/>
      <point x="260" y="530"/>
      <point x="260" y="509" type="curve" smooth="yes"/>
      <point x="260" y="470"/>
      <point x="212" y="413"/>
    </contour>
  </outline>
</glyph>
<glyph name="threesuperior" format="2">
  <advance width="295"/>
  <unicode hex="00B3"/>
  <outline>
    <contour>
      <point x="166" y="314" type="curve" smooth="yes"/>
      <point x="246" y="314"/>
      <point x="306" y="379"/>
      <point x="306" y="442" type="curve" smooth="yes"/>
      <point x="306" y="475"/>
      <point x="288" y="520"/>
      <point x="236" y="538" type="curve"/>
      <point x="284" y="554"/>
      <point x="318" y="610"/>
      <point x="318" y="652" type="curve" smooth="yes"/>
      <point x="318" y="696"/>
      <point x="279" y="718"/>
      <point x="238" y="718" type="curve" smooth="yes"/>
      <point x="191" y="718"/>
      <point x="142" y="690"/>
      <point x="142" y="641" type="curve" smooth="yes"/>
      <point x="142" y="624"/>
      <point x="149" y="600"/>
      <point x="163" y="600" type="curve" smooth="yes"/>
      <point x="171" y="600"/>
      <point x="183" y="608"/>
      <point x="187" y="616" type="curve"/>
      <point x="182" y="628"/>
      <point x="179" y="639"/>
      <point x="179" y="649" type="curve" smooth="yes"/>
      <point x="179" y="682"/>
      <point x="206" y="701"/>
      <point x="232" y="701" type="curve" smooth="yes"/>
      <point x="253" y="701"/>
      <point x="273" y="689"/>
      <point x="273" y="654" type="curve" smooth="yes"/>
      <point x="273" y="614"/>
      <point x="240" y="556"/>
      <point x="189" y="533" type="curve"/>
      <point x="233" y="522"/>
      <point x="248" y="481"/>
      <point x="248" y="442" type="curve" smooth="yes"/>
      <point x="248" y="378"/>
      <point x="208" y="334"/>
      <point x="171" y="334" type="curve" smooth="yes"/>
      <point x="141" y="334"/>
      <point x="123" y="363"/>
      <point x="123" y="393" type="curve" smooth="yes"/>
      <point x="123" y="410"/>
      <point x="129" y="431"/>
      <point x="140" y="440" type="curve"/>
      <point x="134" y="442"/>
      <point x="130" y="442"/>
      <point x="126" y="442" type="curve" smooth="yes"/>
      <point x="96" y="442"/>
      <point x="81" y="412"/>
      <point x="81" y="387" type="curve" smooth="yes"/>
      <point x="81" y="355"/>
      <point x="103" y="314"/>
    </contour>
  </outline>
</glyph>
<glyph name="micro" format="2">
  <advance width="585"/>
  <unicode hex="00B5"/>
  <outline>
    <contour>
      <point x="-9" y="-280" type="curve" smooth="yes"/>
      <point x="9" y="-280"/>
      <point x="43" y="-187"/>
      <point x="92" y="-13" type="curve"/>
      <point x="103" y="-24"/>
      <point x="118" y="-30"/>
      <point x="134" y="-30" type="curve" smooth="yes"/>
      <point x="184" y="-30"/>
      <point x="228" y="28"/>
      <point x="265" y="94" type="curve"/>
      <point x="261" y="77"/>
      <point x="258" y="60"/>
      <point x="258" y="44" type="curve" smooth="yes"/>
      <point x="258" y="3"/>
      <point x="275" y="-30"/>
      <point x="328" y="-30" type="curve" smooth="yes"/>
      <point x="399" y="-30"/>
      <point x="486" y="45"/>
      <point x="529" y="153" type="curve"/>
      <point x="516" y="162" type="line"/>
      <point x="467" y="59"/>
      <point x="391" y="0"/>
      <point x="349" y="0" type="curve" smooth="yes"/>
      <point x="325" y="0"/>
      <point x="316" y="16"/>
      <point x="316" y="40" type="curve" smooth="yes"/>
      <point x="316" y="107"/>
      <point x="383" y="234"/>
      <point x="383" y="245" type="curve" smooth="yes"/>
      <point x="383" y="262"/>
      <point x="346" y="269"/>
      <point x="335" y="271" type="curve"/>
      <point x="297" y="196"/>
      <point x="215" y="10"/>
      <point x="153" y="10" type="curve" smooth="yes"/>
      <point x="133" y="10"/>
      <point x="124" y="26"/>
      <point x="124" y="60" type="curve" smooth="yes"/>
      <point x="124" y="109"/>
      <point x="143" y="197"/>
      <point x="172" y="327" type="curve"/>
      <point x="172" y="350"/>
      <point x="158" y="373"/>
      <point x="124" y="373" type="curve" smooth="yes"/>
      <point x="108" y="373"/>
      <point x="106" y="368"/>
      <point x="105" y="356" type="curve"/>
      <point x="57" y="-45"/>
      <point x="7" y="-77"/>
      <point x="-40" y="-242" type="curve"/>
      <point x="-40" y="-246"/>
      <point x="-27" y="-280"/>
    </contour>
  </outline>
</glyph>
<glyph name="periodcentered" format="2">
  <advance width="209"/>
  <unicode hex="00B7"/>
  <anchor x="81" y="158" name="_center"/>
  <outline>
    <contour>
      <point x="70" y="124" type="curve" smooth="yes"/>
      <point x="96" y="124"/>
      <point x="122" y="148"/>
      <point x="122" y="168" type="curve" smooth="yes"/>
      <point x="122" y="186"/>
      <point x="112" y="192"/>
      <point x="96" y="192" type="curve" smooth="yes"/>
      <point x="70" y="192"/>
      <point x="38" y="173"/>
      <point x="38" y="151" type="curve" smooth="yes"/>
      <point x="38" y="132"/>
      <point x="53" y="124"/>
    </contour>
  </outline>
</glyph>
<glyph name="oslash" format="2">
  <advance width="363"/>
  <unicode hex="00F8"/>
  <anchor x="237" y="352" name="topright"/>
  <outline>
    <contour>
      <point x="69" y="-32" type="curve" smooth="yes"/>
      <point x="119" y="-32"/>
      <point x="176" y="13"/>
      <point x="222" y="73" type="curve"/>
      <point x="237" y="66"/>
      <point x="252" y="63"/>
      <point x="270" y="63" type="curve" smooth="yes"/>
      <point x="314" y="63"/>
      <point x="369" y="86"/>
      <point x="396" y="149" type="curve"/>
      <point x="384" y="159" type="line"/>
      <point x="360" y="104"/>
      <point x="308" y="87"/>
      <point x="277" y="87" type="curve" smooth="yes"/>
      <point x="263" y="87"/>
      <point x="250" y="91"/>
      <point x="239" y="97" type="curve"/>
      <point x="278" y="155"/>
      <point x="306" y="223"/>
      <point x="306" y="275" type="curve" smooth="yes"/>
      <point x="306" y="295"/>
      <point x="303" y="312"/>
      <point x="295" y="325" type="curve"/>
      <point x="317" y="360"/>
      <point x="334" y="386"/>
      <point x="334" y="386" type="curve"/>
      <point x="330" y="386"/>
      <point x="325" y="387"/>
      <point x="321" y="387" type="curve" smooth="yes"/>
      <point x="303" y="387"/>
      <point x="281" y="380"/>
      <point x="276" y="372" type="curve" smooth="yes"/>
      <point x="271" y="364"/>
      <point x="266" y="356"/>
      <point x="262" y="349" type="curve"/>
      <point x="255" y="351"/>
      <point x="246" y="352"/>
      <point x="237" y="352" type="curve" smooth="yes"/>
      <point x="174" y="352"/>
      <point x="139" y="292"/>
      <point x="139" y="226" type="curve" smooth="yes"/>
      <point x="139" y="209"/>
      <point x="141" y="191"/>
      <point x="146" y="174" type="curve"/>
      <point x="132" y="153"/>
      <point x="94" y="101"/>
      <point x="55" y="55" type="curve"/>
      <point x="53" y="116"/>
      <point x="99.0" y="222"/>
      <point x="126" y="245" type="curve"/>
      <point x="119" y="248"/>
      <point x="112" y="250"/>
      <point x="105" y="250" type="curve" smooth="yes"/>
      <point x="48" y="250"/>
      <point x="-10" y="141"/>
      <point x="-10" y="59" type="curve" smooth="yes"/>
      <point x="-10" y="35"/>
      <point x="-5" y="14"/>
      <point x="6" y="-2" type="curve"/>
      <point x="-21" y="-31"/>
      <point x="-46" y="-53"/>
      <point x="-65" y="-63" type="curve"/>
      <point x="-61" y="-64"/>
      <point x="-56" y="-64"/>
      <point x="-52" y="-64" type="curve" smooth="yes"/>
      <point x="-26" y="-64"/>
      <point x="2" y="-49"/>
      <point x="32" y="-24" type="curve"/>
      <point x="42" y="-29"/>
      <point x="54" y="-32"/>
    </contour>
    <contour>
      <point x="198" y="89" type="curve"/>
      <point x="161" y="42"/>
      <point x="119" y="9"/>
      <point x="91" y="9" type="curve" smooth="yes"/>
      <point x="84" y="9"/>
      <point x="78" y="11"/>
      <point x="73" y="14" type="curve"/>
      <point x="106" y="48"/>
      <point x="138" y="89"/>
      <point x="165" y="128" type="curve"/>
      <point x="174" y="113"/>
      <point x="185" y="100"/>
    </contour>
    <contour>
      <point x="216" y="115" type="curve"/>
      <point x="205" y="128"/>
      <point x="196" y="146"/>
      <point x="190" y="164" type="curve"/>
      <point x="209" y="193"/>
      <point x="243" y="244"/>
      <point x="272" y="290" type="curve"/>
      <point x="281.0" y="243.0"/>
      <point x="255" y="172"/>
    </contour>
    <contour>
      <point x="246" y="325" type="curve"/>
      <point x="223" y="288"/>
      <point x="202" y="256"/>
      <point x="182" y="226" type="curve"/>
      <point x="182" y="281"/>
      <point x="217" y="325"/>
      <point x="244" y="325" type="curve" smooth="yes"/>
      <point x="245" y="325.0"/>
      <point x="245" y="325.0"/>
    </contour>
  </outline>
</glyph>
<glyph name="lslash" format="2">
  <advance width="237"/>
  <unicode hex="0142"/>
  <outline>
    <contour>
      <point x="83" y="-30" type="curve" smooth="yes"/>
      <point x="155" y="-30"/>
      <point x="218" y="40"/>
      <point x="271" y="154" type="curve"/>
      <point x="256" y="162" type="line"/>
      <point x="221" y="84"/>
      <point x="165" y="2"/>
      <point x="112" y="2" type="curve" smooth="yes"/>
      <point x="83" y="2"/>
      <point x="68" y="27"/>
      <point x="68" y="79" type="curve" smooth="yes"/>
      <point x="68" y="167"/>
      <point x="108" y="276"/>
      <point x="153" y="376" type="curve" smooth="yes"/>
      <point x="231" y="550"/>
      <point x="300" y="652"/>
      <point x="357" y="720" type="curve"/>
      <point x="301" y="720"/>
      <point x="267" y="697"/>
      <point x="204" y="596" type="curve" smooth="yes"/>
      <point x="112" y="449"/>
      <point x="3" y="201"/>
      <point x="3" y="73" type="curve" smooth="yes"/>
      <point x="3" y="14"/>
      <point x="26" y="-30"/>
    </contour>
    <contour>
      <point x="121" y="639" type="curve"/>
      <point x="199" y="649"/>
      <point x="255" y="652"/>
      <point x="356" y="652" type="curve" smooth="yes"/>
      <point x="433" y="652"/>
      <point x="467" y="652"/>
      <point x="483" y="682" type="curve"/>
      <point x="446" y="685"/>
      <point x="367" y="690"/>
      <point x="296" y="690" type="curve" smooth="yes"/>
      <point x="201" y="690"/>
      <point x="140" y="683"/>
    </contour>
  </outline>
</glyph>
<glyph name="quotesinglbase" format="2">
  <advance width="196"/>
  <unicode hex="201A"/>
  <outline>
    <contour>
      <point x="7" y="-88" type="curve"/>
      <point x="25" y="-49"/>
      <point x="39" y="-11"/>
      <point x="76" y="28" type="curve"/>
      <point x="76" y="43"/>
      <point x="64" y="56"/>
      <point x="51" y="56" type="curve" smooth="yes"/>
      <point x="21" y="56"/>
      <point x="-10" y="-10"/>
      <point x="-10" y="-51" type="curve" smooth="yes"/>
      <point x="-10" y="-67"/>
      <point x="-5" y="-81"/>
    </contour>
  </outline>
</glyph>
<glyph name="franc" format="2">
  <advance width="454"/>
  <unicode hex="20A3"/>
  <outline>
    <contour>
      <point x="17" y="151" type="curve"/>
      <point x="59" y="161"/>
      <point x="110" y="164"/>
      <point x="186" y="164" type="curve" smooth="yes"/>
      <point x="300" y="164"/>
      <point x="349" y="167"/>
      <point x="354" y="202" type="curve"/>
      <point x="304" y="207"/>
      <point x="253" y="209"/>
      <point x="191" y="209" type="curve" smooth="yes"/>
      <point x="106" y="209"/>
      <point x="19" y="188"/>
    </contour>
    <component base="F.salt" yScale="0.88" yOffset="21"/>
  </outline>
</glyph>
<glyph name="cedi" format="2">
  <advance width="535"/>
  <unicode hex="20B5"/>
  <outline>
    <contour>
      <point x="219" y="-56" type="curve" smooth="yes"/>
      <point x="353" y="-56"/>
      <point x="462" y="39"/>
      <point x="529" y="155" type="curve"/>
      <point x="515" y="164" type="line"/>
      <point x="462" y="63"/>
      <point x="349" y="-26"/>
      <point x="243" y="-26" type="curve" smooth="yes"/>
      <point x="142" y="-26"/>
      <point x="102" y="57"/>
      <point x="102" y="144" type="curve" smooth="yes"/>
      <point x="102" y="342"/>
      <point x="292" y="627"/>
      <point x="436" y="627" type="curve" smooth="yes"/>
      <point x="466" y="627"/>
      <point x="479" y="611"/>
      <point x="479" y="588" type="curve" smooth="yes"/>
      <point x="479" y="520"/>
      <point x="422" y="458"/>
      <point x="422" y="408" type="curve" smooth="yes"/>
      <point x="422" y="385"/>
      <point x="438" y="371"/>
      <point x="458" y="371" type="curve"/>
      <point x="481" y="405"/>
      <point x="525" y="502"/>
      <point x="525" y="578" type="curve" smooth="yes"/>
      <point x="525" y="633"/>
      <point x="487" y="654"/>
      <point x="433" y="654" type="curve" smooth="yes"/>
      <point x="243" y="654"/>
      <point x="22" y="391"/>
      <point x="22" y="159" type="curve" smooth="yes"/>
      <point x="22" y="52"/>
      <point x="77" y="-56"/>
    </contour>
    <contour>
      <point x="151" y="-162" type="curve"/>
      <point x="249" y="-162"/>
      <point x="275" y="16"/>
      <point x="333" y="303" type="curve" smooth="yes"/>
      <point x="359" y="442"/>
      <point x="386" y="581"/>
      <point x="412" y="720" type="curve"/>
      <point x="376" y="710"/>
      <point x="371" y="695"/>
      <point x="358" y="632" type="curve" smooth="yes"/>
      <point x="342" y="555"/>
      <point x="320" y="438"/>
      <point x="295" y="321" type="curve" smooth="yes"/>
      <point x="255" y="138"/>
      <point x="202" y="-98"/>
    </contour>
  </outline>
</glyph>
<glyph name="manat" format="2">
  <advance width="732"/>
  <unicode hex="20BC"/>
  <outline>
    <contour>
      <point x="406" y="-54" type="curve" smooth="yes"/>
      <point x="542" y="-54"/>
      <point x="634" y="190"/>
      <point x="634" y="314" type="curve" smooth="yes"/>
      <point x="634" y="462"/>
      <point x="552" y="556"/>
      <point x="413" y="556" type="curve" smooth="yes"/>
      <point x="206" y="556"/>
      <point x="35" y="344"/>
      <point x="35" y="134" type="curve" smooth="yes"/>
      <point x="35" y="63"/>
      <point x="50" y="-4"/>
      <point x="112" y="-4" type="curve"/>
      <point x="106" y="27"/>
      <point x="104" y="58"/>
      <point x="104" y="89" type="curve" smooth="yes"/>
      <point x="104" y="273"/>
      <point x="232" y="529"/>
      <point x="414" y="529" type="curve" smooth="yes"/>
      <point x="520" y="529"/>
      <point x="564" y="454"/>
      <point x="564" y="346" type="curve" smooth="yes"/>
      <point x="564" y="232"/>
      <point x="497" y="35"/>
      <point x="378" y="-51" type="curve"/>
      <point x="385" y="-53"/>
      <point x="397" y="-54"/>
    </contour>
    <contour>
      <point x="191" y="-72" type="curve"/>
      <point x="293" y="-72"/>
      <point x="320" y="27"/>
      <point x="402" y="321" type="curve" smooth="yes"/>
      <point x="440" y="457"/>
      <point x="458" y="559"/>
      <point x="495" y="728" type="curve"/>
      <point x="450" y="725"/>
      <point x="440" y="704"/>
      <point x="425" y="640" type="curve" smooth="yes"/>
      <point x="401" y="539"/>
      <point x="380" y="452"/>
      <point x="346" y="339" type="curve" smooth="yes"/>
      <point x="299" y="184"/>
      <point x="227" y="-16"/>
    </contour>
  </outline>
</glyph>
<glyph name="b_r" format="2">
  <advance width="742"/>
  <outline>
    <contour>
      <point x="93" y="-73" type="curve" smooth="yes"/>
      <point x="163" y="-73"/>
      <point x="216" y="-23"/>
      <point x="252" y="38" type="curve"/>
      <point x="262" y="36"/>
      <point x="272" y="35"/>
      <point x="281" y="35" type="curve" smooth="yes"/>
      <point x="411" y="35"/>
      <point x="462" y="201"/>
      <point x="494" y="302" type="curve"/>
      <point x="519" y="284"/>
      <point x="550" y="268"/>
      <point x="550" y="227" type="curve" smooth="yes"/>
      <point x="550" y="172"/>
      <point x="495" y="97"/>
      <point x="495" y="40" type="curve" smooth="yes"/>
      <point x="495" y="-1"/>
      <point x="523" y="-26"/>
      <point x="568" y="-26" type="curve" smooth="yes"/>
      <point x="653" y="-26"/>
      <point x="739" y="64"/>
      <point x="777" y="149" type="curve"/>
      <point x="764" y="159" type="line"/>
      <point x="739" y="101"/>
      <point x="657" y="10"/>
      <point x="594" y="10" type="curve" smooth="yes"/>
      <point x="578" y="10"/>
      <point x="564" y="16"/>
      <point x="564" y="39" type="curve" smooth="yes"/>
      <point x="564" y="83"/>
      <point x="614" y="148"/>
      <point x="614" y="208" type="curve" smooth="yes"/>
      <point x="614" y="294"/>
      <point x="512" y="314"/>
      <point x="512" y="346" type="curve" smooth="yes"/>
      <point x="512" y="356"/>
      <point x="523" y="374"/>
      <point x="523" y="386" type="curve" smooth="yes"/>
      <point x="523" y="390"/>
      <point x="522" y="409"/>
      <point x="511" y="409" type="curve" smooth="yes"/>
      <point x="496" y="409"/>
      <point x="467" y="378"/>
      <point x="467" y="343" type="curve" smooth="yes"/>
      <point x="467" y="330"/>
      <point x="471" y="323"/>
      <point x="477" y="317" type="curve"/>
      <point x="446" y="225"/>
      <point x="391" y="57"/>
      <point x="284" y="57" type="curve" smooth="yes"/>
      <point x="277" y="57"/>
      <point x="270" y="57"/>
      <point x="263" y="59" type="curve"/>
      <point x="285" y="103"/>
      <point x="296" y="148"/>
      <point x="296" y="192" type="curve" smooth="yes"/>
      <point x="296" y="252"/>
      <point x="271" y="284"/>
      <point x="233" y="284" type="curve" smooth="yes"/>
      <point x="188" y="284"/>
      <point x="149" y="242"/>
      <point x="149" y="178" type="curve" smooth="yes"/>
      <point x="149" y="128"/>
      <point x="173" y="74"/>
      <point x="222" y="49" type="curve"/>
      <point x="196" y="0"/>
      <point x="150" y="-35"/>
      <point x="112" y="-35" type="curve" smooth="yes"/>
      <point x="72" y="-35"/>
      <point x="57" y="4"/>
      <point x="57" y="59" type="curve" smooth="yes"/>
      <point x="57" y="143"/>
      <point x="93" y="248"/>
      <point x="105" y="270" type="curve"/>
      <point x="223" y="341"/>
      <point x="333" y="558"/>
      <point x="333" y="651" type="curve" smooth="yes"/>
      <point x="333" y="679"/>
      <point x="323" y="714"/>
      <point x="301" y="714" type="curve" smooth="yes"/>
      <point x="219" y="714"/>
      <point x="-10" y="254"/>
      <point x="-10" y="53" type="curve" smooth="yes"/>
      <point x="-10" y="-24"/>
      <point x="24" y="-73"/>
    </contour>
    <contour>
      <point x="232" y="69" type="curve"/>
      <point x="197" y="92"/>
      <point x="184" y="137"/>
      <point x="184" y="173" type="curve" smooth="yes"/>
      <point x="184" y="214"/>
      <point x="202" y="245"/>
      <point x="222" y="245" type="curve" smooth="yes"/>
      <point x="241" y="245"/>
      <point x="255" y="216"/>
      <point x="255" y="170" type="curve" smooth="yes"/>
      <point x="255" y="134"/>
      <point x="246" y="99"/>
    </contour>
    <contour>
      <point x="116" y="309" type="curve"/>
      <point x="162" y="462"/>
      <point x="273" y="633"/>
      <point x="295" y="633" type="curve" smooth="yes"/>
      <point x="298" y="633"/>
      <point x="299" y="631"/>
      <point x="299" y="625" type="curve" smooth="yes"/>
      <point x="299" y="574"/>
      <point x="208" y="383"/>
    </contour>
  </outline>
</glyph>
<glyph name="circumflexcomb_hookabovecomb" format="2">
  <outline>
    <contour>
      <point x="186" y="441" type="curve" smooth="yes"/>
      <point x="221" y="441"/>
      <point x="245" y="466"/>
      <point x="245" y="503" type="curve" smooth="yes"/>
      <point x="245" y="550"/>
      <point x="212" y="587"/>
      <point x="167" y="587" type="curve" smooth="yes"/>
      <point x="137" y="587"/>
      <point x="119" y="566"/>
      <point x="119" y="541" type="curve"/>
      <point x="181" y="541"/>
      <point x="212" y="527"/>
      <point x="212" y="496" type="curve" smooth="yes"/>
      <point x="212" y="468"/>
      <point x="183" y="454"/>
      <point x="155" y="452" type="curve"/>
      <point x="161" y="446"/>
      <point x="172" y="441"/>
    </contour>
    <component base="circumflexcomb.case"/>
  </outline>
</glyph>
<glyph name="circumflexcomb_tildecomb" format="2">
  <outline>
    <contour>
      <point x="142" y="509" type="curve" smooth="yes"/>
      <point x="168" y="509"/>
      <point x="193" y="520"/>
      <point x="216" y="558" type="curve"/>
      <point x="205" y="553"/>
      <point x="195" y="550"/>
      <point x="183" y="550" type="curve" smooth="yes"/>
      <point x="119" y="550"/>
      <point x="63" y="598"/>
      <point x="14" y="598" type="curve" smooth="yes"/>
      <point x="-14" y="598"/>
      <point x="-40" y="583"/>
      <point x="-64" y="542" type="curve"/>
      <point x="-49" y="550"/>
      <point x="-32" y="555"/>
      <point x="-15" y="555" type="curve" smooth="yes"/>
      <point x="39" y="555"/>
      <point x="93" y="509"/>
    </contour>
    <component base="circumflexcomb.case"/>
  </outline>
</glyph>
<glyph name="eng.calt" format="2">
  <advance width="462"/>
  <outline>
    <contour>
      <point x="76" y="-280" type="curve" smooth="yes"/>
      <point x="208" y="-280"/>
      <point x="356" y="47"/>
      <point x="356" y="192" type="curve" smooth="yes"/>
      <point x="356" y="243"/>
      <point x="334" y="292"/>
      <point x="282" y="292" type="curve" smooth="yes"/>
      <point x="206" y="292"/>
      <point x="127" y="197"/>
      <point x="74" y="116" type="curve"/>
      <point x="92" y="171"/>
      <point x="106" y="227"/>
      <point x="106" y="248" type="curve" smooth="yes"/>
      <point x="106" y="264"/>
      <point x="97" y="274"/>
      <point x="79" y="274" type="curve" smooth="yes"/>
      <point x="60" y="274"/>
      <point x="41" y="262"/>
      <point x="33" y="253" type="curve"/>
      <point x="32" y="166"/>
      <point x="-38" y="19"/>
      <point x="-38" y="7" type="curve"/>
      <point x="-27" y="-8"/>
      <point x="-6" y="-15"/>
      <point x="15" y="-15" type="curve"/>
      <point x="67" y="73"/>
      <point x="159" y="232"/>
      <point x="242" y="232" type="curve" smooth="yes"/>
      <point x="265" y="232"/>
      <point x="282" y="217"/>
      <point x="282" y="172" type="curve" smooth="yes"/>
      <point x="282" y="26"/>
      <point x="144" y="-246"/>
      <point x="67" y="-246" type="curve" smooth="yes"/>
      <point x="58" y="-246"/>
      <point x="50" y="-240"/>
      <point x="50" y="-222" type="curve" smooth="yes"/>
      <point x="50" y="-168"/>
      <point x="122" y="-103"/>
      <point x="254" y="-44" type="curve" smooth="yes"/>
      <point x="367" y="6"/>
      <point x="443" y="44"/>
      <point x="493" y="150" type="curve"/>
      <point x="480" y="157" type="line"/>
      <point x="431" y="77"/>
      <point x="377" y="33"/>
      <point x="274" y="-11" type="curve" smooth="yes"/>
      <point x="127" y="-74"/>
      <point x="24" y="-145"/>
      <point x="24" y="-229" type="curve" smooth="yes"/>
      <point x="24" y="-258"/>
      <point x="42" y="-280"/>
    </contour>
  </outline>
</glyph>
